<svg width="440" height="240" viewBox="0 0 240 78" fill="none" xmlns="http://www.w3.org/2000/svg">
<circle cx="39.3943" cy="38.8863" r="38.8443" fill="#405FF2"/>
<path d="M9.30606 48.3867L16.2181 29.4867H20.1061L27.0181 48.3867H23.3461L21.8341 44.0127H14.4631L12.9241 48.3867H9.30606ZM15.4081 41.3127H20.8891L18.1351 33.4557L15.4081 41.3127ZM34.13 48.7107C32.456 48.7107 31.16 48.1887 30.242 47.1447C29.342 46.1007 28.892 44.5707 28.892 42.5547V34.9947H32.321V42.2307C32.321 43.3827 32.555 44.2647 33.023 44.8767C33.491 45.4887 34.229 45.7947 35.237 45.7947C36.191 45.7947 36.974 45.4527 37.586 44.7687C38.216 44.0847 38.531 43.1307 38.531 41.9067V34.9947H41.987V48.3867H38.936L38.666 46.1187C38.252 46.9107 37.649 47.5407 36.857 48.0087C36.083 48.4767 35.174 48.7107 34.13 48.7107ZM51.5018 48.3867C50.0978 48.3867 48.9728 48.0447 48.1268 47.3607C47.2808 46.6767 46.8578 45.4617 46.8578 43.7157V37.8837H44.5628V34.9947H46.8578L47.2628 31.4037H50.3138V34.9947H53.9318V37.8837H50.3138V43.7427C50.3138 44.3907 50.4488 44.8407 50.7188 45.0927C51.0068 45.3267 51.4928 45.4437 52.1768 45.4437H53.8508V48.3867H51.5018ZM62.9823 48.7107C61.6863 48.7107 60.5163 48.4137 59.4723 47.8197C58.4463 47.2257 57.6273 46.4067 57.0153 45.3627C56.4213 44.3007 56.1243 43.0767 56.1243 41.6907C56.1243 40.3047 56.4303 39.0897 57.0423 38.0457C57.6543 36.9837 58.4733 36.1557 59.4993 35.5617C60.5433 34.9677 61.7133 34.6707 63.0093 34.6707C64.2873 34.6707 65.4393 34.9677 66.4653 35.5617C67.5093 36.1557 68.3283 36.9837 68.9223 38.0457C69.5343 39.0897 69.8403 40.3047 69.8403 41.6907C69.8403 43.0767 69.5343 44.3007 68.9223 45.3627C68.3283 46.4067 67.5093 47.2257 66.4653 47.8197C65.4213 48.4137 64.2603 48.7107 62.9823 48.7107ZM62.9823 45.7137C63.8823 45.7137 64.6653 45.3807 65.3313 44.7147C65.9973 44.0307 66.3303 43.0227 66.3303 41.6907C66.3303 40.3587 65.9973 39.3597 65.3313 38.6937C64.6653 38.0097 63.8913 37.6677 63.0093 37.6677C62.0913 37.6677 61.2993 38.0097 60.6333 38.6937C59.9853 39.3597 59.6613 40.3587 59.6613 41.6907C59.6613 43.0227 59.9853 44.0307 60.6333 44.7147C61.2993 45.3807 62.0823 45.7137 62.9823 45.7137Z" fill="white"/>
<path d="M85.8785 48.3867V29.4867H92.8715C94.3835 29.4867 95.6345 29.7387 96.6245 30.2427C97.6145 30.7467 98.3525 31.4397 98.8385 32.3217C99.3245 33.2037 99.5675 34.1937 99.5675 35.2917C99.5675 36.3357 99.3335 37.2987 98.8655 38.1807C98.3975 39.0447 97.6685 39.7467 96.6785 40.2867C95.6885 40.8087 94.4195 41.0697 92.8715 41.0697H89.3345V48.3867H85.8785ZM89.3345 38.2617H92.6555C93.8615 38.2617 94.7255 38.0007 95.2475 37.4787C95.7875 36.9387 96.0575 36.2097 96.0575 35.2917C96.0575 34.3557 95.7875 33.6267 95.2475 33.1047C94.7255 32.5647 93.8615 32.2947 92.6555 32.2947H89.3345V38.2617ZM105.971 48.7107C104.819 48.7107 103.874 48.5307 103.136 48.1707C102.398 47.7927 101.849 47.2977 101.489 46.6857C101.129 46.0737 100.949 45.3987 100.949 44.6607C100.949 43.4187 101.435 42.4107 102.407 41.6367C103.379 40.8627 104.837 40.4757 106.781 40.4757H110.183V40.1517C110.183 39.2337 109.922 38.5587 109.4 38.1267C108.878 37.6947 108.23 37.4787 107.456 37.4787C106.754 37.4787 106.142 37.6497 105.62 37.9917C105.098 38.3157 104.774 38.8017 104.648 39.4497H101.273C101.363 38.4777 101.687 37.6317 102.245 36.9117C102.821 36.1917 103.559 35.6427 104.459 35.2647C105.359 34.8687 106.367 34.6707 107.483 34.6707C109.391 34.6707 110.894 35.1477 111.992 36.1017C113.09 37.0557 113.639 38.4057 113.639 40.1517V48.3867H110.696L110.372 46.2267C109.976 46.9467 109.418 47.5407 108.698 48.0087C107.996 48.4767 107.087 48.7107 105.971 48.7107ZM106.754 46.0107C107.744 46.0107 108.509 45.6867 109.049 45.0387C109.607 44.3907 109.958 43.5897 110.102 42.6357H107.159C106.241 42.6357 105.584 42.8067 105.188 43.1487C104.792 43.4727 104.594 43.8777 104.594 44.3637C104.594 44.8857 104.792 45.2907 105.188 45.5787C105.584 45.8667 106.106 46.0107 106.754 46.0107ZM116.937 48.3867V34.9947H120.015L120.339 37.5057C120.825 36.6417 121.482 35.9577 122.31 35.4537C123.156 34.9317 124.146 34.6707 125.28 34.6707V38.3157H124.308C123.552 38.3157 122.877 38.4327 122.283 38.6667C121.689 38.9007 121.221 39.3057 120.879 39.8817C120.555 40.4577 120.393 41.2587 120.393 42.2847V48.3867H116.937ZM133.609 48.3867C132.205 48.3867 131.08 48.0447 130.234 47.3607C129.388 46.6767 128.965 45.4617 128.965 43.7157V37.8837H126.67V34.9947H128.965L129.37 31.4037H132.421V34.9947H136.039V37.8837H132.421V43.7427C132.421 44.3907 132.556 44.8407 132.826 45.0927C133.114 45.3267 133.6 45.4437 134.284 45.4437H135.958V48.3867H133.609ZM144.541 48.7107C143.353 48.7107 142.309 48.5217 141.409 48.1437C140.509 47.7477 139.789 47.2077 139.249 46.5237C138.709 45.8397 138.385 45.0477 138.277 44.1477H141.76C141.868 44.6697 142.156 45.1197 142.624 45.4977C143.11 45.8577 143.731 46.0377 144.487 46.0377C145.243 46.0377 145.792 45.8847 146.134 45.5787C146.494 45.2727 146.674 44.9217 146.674 44.5257C146.674 43.9497 146.422 43.5627 145.918 43.3647C145.414 43.1487 144.712 42.9417 143.812 42.7437C143.236 42.6177 142.651 42.4647 142.057 42.2847C141.463 42.1047 140.914 41.8797 140.41 41.6097C139.924 41.3217 139.528 40.9617 139.222 40.5297C138.916 40.0797 138.763 39.5307 138.763 38.8827C138.763 37.6947 139.231 36.6957 140.167 35.8857C141.121 35.0757 142.453 34.6707 144.163 34.6707C145.747 34.6707 147.007 35.0397 147.943 35.7777C148.897 36.5157 149.464 37.5327 149.644 38.8287H146.377C146.179 37.8387 145.432 37.3437 144.136 37.3437C143.488 37.3437 142.984 37.4697 142.624 37.7217C142.282 37.9737 142.111 38.2887 142.111 38.6667C142.111 39.0627 142.372 39.3777 142.894 39.6117C143.416 39.8457 144.109 40.0617 144.973 40.2597C145.909 40.4757 146.764 40.7187 147.538 40.9887C148.33 41.2407 148.96 41.6277 149.428 42.1497C149.896 42.6537 150.13 43.3827 150.13 44.3367C150.148 45.1647 149.932 45.9117 149.482 46.5777C149.032 47.2437 148.384 47.7657 147.538 48.1437C146.692 48.5217 145.693 48.7107 144.541 48.7107Z" fill="#050B20"/>
</svg>
